<svg width="1200" height="630" viewBox="0 0 1200 630" fill="none" xmlns="http://www.w3.org/2000/svg">
  <defs>
    <linearGradient id="bg" x1="0" y1="0" x2="1200" y2="630" gradientUnits="userSpaceOnUse">
      <stop offset="0" stop-color="#FFF5FA"/>
      <stop offset="1" stop-color="#FDE7F2"/>
    </linearGradient>
    <linearGradient id="accent" x1="0" y1="0" x2="1" y2="1">
      <stop offset="0" stop-color="#F40076"/>
      <stop offset="1" stop-color="#840844"/>
    </linearGradient>
  </defs>
  <rect width="1200" height="630" rx="24" fill="url(#bg)"/>
  <rect x="58" y="58" width="1084" height="514" rx="20" fill="#FFFFFF" stroke="#FBD5E9" stroke-width="4"/>
  <circle cx="156" cy="145" r="52" fill="#FCE4F1"/>
  <path d="M122 145C122 126.222 137.222 111 156 111C174.778 111 190 126.222 190 145C190 163.778 174.778 179 156 179C137.222 179 122 163.778 122 145Z" fill="url(#accent)"/>
  <path d="M142 145L152 155L170 135" stroke="white" stroke-width="8" stroke-linecap="round" stroke-linejoin="round"/>
  <text x="235" y="160" fill="#1F2937" font-family="Segoe UI, Arial, sans-serif" font-size="46" font-weight="700">PLAN MY ADMISSION</text>
  <text x="118" y="288" fill="#111827" font-family="Segoe UI, Arial, sans-serif" font-size="80" font-weight="800">Study Abroad Guidance</text>
  <text x="118" y="368" fill="#F40076" font-family="Segoe UI, Arial, sans-serif" font-size="80" font-weight="800">Powered by Experts + AI</text>
  <text x="118" y="452" fill="#4B5563" font-family="Segoe UI, Arial, sans-serif" font-size="34" font-weight="500">Discover universities and plan admissions with confidence.</text>
  <rect x="118" y="492" width="370" height="54" rx="27" fill="url(#accent)"/>
  <text x="155" y="527" fill="white" font-family="Segoe UI, Arial, sans-serif" font-size="30" font-weight="700">planmyadmission.com</text>
</svg>
